<svg id="Layer_1" data-name="Layer 1" xmlns="http://www.w3.org/2000/svg" width="339.85" height="117.26" viewBox="0 0 339.85 117.26"><title>Swisscows logo - Brandlogos.net</title><path d="M469.13,393.88a15.41,15.41,0,0,0-5.84,1.1,13.41,13.41,0,0,0-4.71,3.22,14.82,14.82,0,0,0-3.15,5.21,20.87,20.87,0,0,0-1.15,7.08,20.28,20.28,0,0,0,1.1,6.82,14.59,14.59,0,0,0,3,5.08,13.07,13.07,0,0,0,4.56,3.17,14.77,14.77,0,0,0,5.69,1.09,15.17,15.17,0,0,0,5.29-.94,13.74,13.74,0,0,0,4.73-3,14.31,14.31,0,0,0,3.4-5.16,20.58,20.58,0,0,0,1.3-7.56,19.45,19.45,0,0,0-1.78-8.48,13.4,13.4,0,0,0-5-5.63A14,14,0,0,0,469.13,393.88ZM311.26,395.7a13.82,13.82,0,0,0-3.23-1.28,16.76,16.76,0,0,0-4.25-.55,12.79,12.79,0,0,0-5.77,1.27,9.39,9.39,0,0,0-3.78,3.37,8.9,8.9,0,0,0-1.36,4.78,7.53,7.53,0,0,0,1.93,5,15.51,15.51,0,0,0,6.13,4,17.1,17.1,0,0,1,3,1.55,5,5,0,0,1,1.61,1.67,4.24,4.24,0,0,1,.48,2.09,3.71,3.71,0,0,1-1.3,3,6,6,0,0,1-4,1.16,12.13,12.13,0,0,1-2.7-.33,16.64,16.64,0,0,1-2.51-.8,14.46,14.46,0,0,1-2-1l-1.48,4.91a14.58,14.58,0,0,0,3.83,1.53,19.4,19.4,0,0,0,4.73.58,15.62,15.62,0,0,0,6.22-1.16A8.78,8.78,0,0,0,312.4,417a8.36,8.36,0,0,0-2-5.69,15.19,15.19,0,0,0-5.92-3.85,23.71,23.71,0,0,1-3.06-1.53,5.21,5.21,0,0,1-1.68-1.52,3.3,3.3,0,0,1-.51-1.87,3.57,3.57,0,0,1,2.06-3.3,5.64,5.64,0,0,1,2.5-.52,10.73,10.73,0,0,1,2.42.28,11.81,11.81,0,0,1,2,.67,11.2,11.2,0,0,1,1.54.82Zm85.55,0a13.8,13.8,0,0,0-3.23-1.28,16.76,16.76,0,0,0-4.25-.55,12.79,12.79,0,0,0-5.77,1.27,9.39,9.39,0,0,0-3.78,3.37,8.91,8.91,0,0,0-1.36,4.78,7.52,7.52,0,0,0,1.93,5,15.51,15.51,0,0,0,6.12,4,17.11,17.11,0,0,1,3,1.55,5,5,0,0,1,1.61,1.67,4.22,4.22,0,0,1,.48,2.09,3.71,3.71,0,0,1-1.3,3,6,6,0,0,1-4,1.16,12.14,12.14,0,0,1-2.7-.33,16.65,16.65,0,0,1-2.51-.8,14.41,14.41,0,0,1-2-1l-1.49,4.91a14.58,14.58,0,0,0,3.83,1.53,19.41,19.41,0,0,0,4.73.58,15.63,15.63,0,0,0,6.22-1.16A8.77,8.77,0,0,0,398,417a8.37,8.37,0,0,0-2-5.69,15.18,15.18,0,0,0-5.92-3.85,23.63,23.63,0,0,1-3.06-1.53,5.2,5.2,0,0,1-1.68-1.52,3.3,3.3,0,0,1-.51-1.87,3.57,3.57,0,0,1,2.06-3.3,5.64,5.64,0,0,1,2.5-.52,10.73,10.73,0,0,1,2.42.28,11.8,11.8,0,0,1,2,.67,11.12,11.12,0,0,1,1.54.82Zm24.74,0a13.8,13.8,0,0,0-3.23-1.28,16.77,16.77,0,0,0-4.26-.55,12.78,12.78,0,0,0-5.77,1.27,9.39,9.39,0,0,0-3.78,3.37,8.91,8.91,0,0,0-1.36,4.78,7.53,7.53,0,0,0,1.93,5,15.5,15.5,0,0,0,6.13,4,17.08,17.08,0,0,1,3,1.55,5,5,0,0,1,1.61,1.67,4.22,4.22,0,0,1,.48,2.09,3.71,3.71,0,0,1-1.3,3,6,6,0,0,1-4,1.16,12.13,12.13,0,0,1-2.7-.33,16.62,16.62,0,0,1-2.51-.8,14.41,14.41,0,0,1-2-1l-1.49,4.91a14.57,14.57,0,0,0,3.83,1.53,19.4,19.4,0,0,0,4.73.58,15.63,15.63,0,0,0,6.22-1.16,8.77,8.77,0,0,0,5.54-8.49,8.36,8.36,0,0,0-2-5.69,15.18,15.18,0,0,0-5.92-3.85,23.72,23.72,0,0,1-3.06-1.53,5.2,5.2,0,0,1-1.68-1.52,3.29,3.29,0,0,1-.51-1.87,3.57,3.57,0,0,1,2.07-3.3,5.63,5.63,0,0,1,2.5-.52,10.72,10.72,0,0,1,2.42.28,11.77,11.77,0,0,1,2,.67,11.28,11.28,0,0,1,1.54.82Zm131.23,0a13.81,13.81,0,0,0-3.23-1.28,16.77,16.77,0,0,0-4.25-.55,12.79,12.79,0,0,0-5.77,1.27,9.4,9.4,0,0,0-3.78,3.37,8.89,8.89,0,0,0-1.36,4.78,7.53,7.53,0,0,0,1.93,5,15.52,15.52,0,0,0,6.13,4,17.06,17.06,0,0,1,3,1.55,5,5,0,0,1,1.61,1.67,4.22,4.22,0,0,1,.48,2.09,3.71,3.71,0,0,1-1.3,3,6,6,0,0,1-4,1.16,12.14,12.14,0,0,1-2.7-.33,16.62,16.62,0,0,1-2.51-.8,14.49,14.49,0,0,1-2-1l-1.48,4.91a14.58,14.58,0,0,0,3.83,1.53,19.4,19.4,0,0,0,4.73.58,15.62,15.62,0,0,0,6.22-1.16,8.78,8.78,0,0,0,5.54-8.49,8.36,8.36,0,0,0-2-5.69,15.18,15.18,0,0,0-5.92-3.85,23.59,23.59,0,0,1-3.06-1.53,5.22,5.22,0,0,1-1.68-1.52,3.32,3.32,0,0,1-.51-1.87,3.58,3.58,0,0,1,2.07-3.3,5.64,5.64,0,0,1,2.5-.52,10.73,10.73,0,0,1,2.42.28,11.8,11.8,0,0,1,2,.67,11.14,11.14,0,0,1,1.54.82ZM449.42,420.09a16.13,16.13,0,0,1-2.54.86,14.23,14.23,0,0,1-3.4.39,9.31,9.31,0,0,1-4.91-1.32,9,9,0,0,1-3.37-3.77,13.36,13.36,0,0,1-1.25-5.93,14.62,14.62,0,0,1,.63-4.35,10.8,10.8,0,0,1,1.85-3.56,8.6,8.6,0,0,1,3-2.4,9.45,9.45,0,0,1,4.1-.88,13.49,13.49,0,0,1,3.41.41,11.36,11.36,0,0,1,2.25.84l1.31-5.08a13.2,13.2,0,0,0-2.89-1,19.16,19.16,0,0,0-4.13-.46,17.79,17.79,0,0,0-6.81,1.27,14.58,14.58,0,0,0-5.12,3.52,15.43,15.43,0,0,0-3.22,5.31,19.32,19.32,0,0,0-1.12,6.64,18.59,18.59,0,0,0,1.87,8.53,13.28,13.28,0,0,0,5.21,5.54,15.69,15.69,0,0,0,7.93,2,22.07,22.07,0,0,0,3.4-.26,20.66,20.66,0,0,0,2.76-.62,14.59,14.59,0,0,0,2-.72Zm-78.26-25.58V426h-6.62V394.51Zm122.4.06L497,409.64q.56,2.53,1.09,5t1,5h.11q.48-2.45,1.15-5t1.36-5l4.34-15.13h5.42l4.11,14.79q.73,2.73,1.36,5.3t1.1,5h.17q.39-2.44.93-5t1.18-5.29L524,394.56h6.57L521,426h-6L511,412.09q-.72-2.45-1.28-4.87T508.64,402h-.17q-.47,2.81-1.1,5.29T506,412.15L501.73,426h-6l-9-31.47Zm-171.11,0,3.48,15.08q.56,2.53,1.09,5t1,5h.11q.48-2.45,1.15-5t1.36-5L335,394.56h5.42l4.11,14.79q.73,2.73,1.36,5.3t1.1,5h.17q.39-2.44.93-5t1.19-5.29l3.65-14.85h6.57L349.92,426h-6l-4.06-13.93q-.72-2.45-1.28-4.87T337.53,402h-.17q-.48,2.81-1.1,5.29t-1.36,4.81L330.62,426h-6l-9-31.47Zm154.16,15.65a17.81,17.81,0,0,1-.54,4.44,12.49,12.49,0,0,1-1.55,3.65,7.84,7.84,0,0,1-2.44,2.48,6.1,6.1,0,0,1-3.24.91,6.17,6.17,0,0,1-3.26-.91,7.79,7.79,0,0,1-2.44-2.46,12.42,12.42,0,0,1-1.53-3.62,17.54,17.54,0,0,1-.53-4.38,19.17,19.17,0,0,1,.43-4.08,13.16,13.16,0,0,1,1.36-3.69,7.64,7.64,0,0,1,2.42-2.67,6.47,6.47,0,0,1,3.61-1,6.22,6.22,0,0,1,3.54,1,7.79,7.79,0,0,1,2.39,2.69,13.4,13.4,0,0,1,1.35,3.66A18.49,18.49,0,0,1,476.62,410.21ZM371.73,385.88a3.93,3.93,0,0,0-1.06-2.78,3.77,3.77,0,0,0-2.77-1.11,3.75,3.75,0,0,0-3.88,3.88,3.93,3.93,0,0,0,.48,1.93,3.58,3.58,0,0,0,1.34,1.37,3.93,3.93,0,0,0,2,.52,4.1,4.1,0,0,0,2.07-.52,3.52,3.52,0,0,0,1.34-1.37A4.05,4.05,0,0,0,371.73,385.88Z" transform="translate(-214.07 -325.37)" style="fill:#bf0000"/><path d="M243.87,442.63l1.38-7.09c-.32-6.67-1.37-13.1-3.94-18.85,1.92-3,2.62-8.22,3.17-13.65l-8.07-13.24c-.23.05-1.42-1.13-2-2l-.87.07c-13,.94-13.29-12.25-11.45-22.29,1.8-6.82-8.73-2.95-7.86-3.37-.76-2.13,1.83-5.59,5-6.77,1.19,1,6.47,1.87,5,9.85-2.68,4.67-.34,26.18,13.76,16l2.09-3a107.14,107.14,0,0,1,18.12-9.15c2.4-3,7.61-9.59,8.84-10.79a34.18,34.18,0,0,1,4-3c3.41-4.44,6.89-12.66,6.56-16.08-1.54,1.35-3.18,2.82-5.19-.38-1.59-2.52,2.19-5.18,5.81-4.73l.19-.21c-2.52-3.81,5.35-10.25,5.44-8.24-1.84,1.57-3.61,3.37-2.23,6.27a5.69,5.69,0,0,1,5.91-1.09l1.93.72c6.36,1.34,13.67-4.49,13.81.11l0,1.62a19.11,19.11,0,0,1-3.68,2.34,8.52,8.52,0,0,0,3.72-.78l0,1.47L301,338.66a31.91,31.91,0,0,1-8,8.71,18.69,18.69,0,0,1,.07,2.57,28.25,28.25,0,0,0,11-1.19l-.07-.11c-1-1.69.23-5.17,1.85-6.93a4.94,4.94,0,0,1,1.83-.86l5.09,4.64a3.16,3.16,0,0,1-.57,1.67c-2.18,2.39-5.65,3.59-7.5,2.25a21.19,21.19,0,0,1-11,7.22q.12.45.28.87a8.34,8.34,0,0,1,1.43,2.46,25,25,0,0,1,1.11,2.57c3.1-.23,5.86-.11,10.38-.68l11.48,3.61,8.41,2.54-4.87,2.64-4.59-2.24c-3.58-.72-6.85,2-11.33-.64a27.32,27.32,0,0,0-3.09,1.65c1.94.63,4.07,1.4,7,2.17L317,383.47l2.93,6.79L314.78,389l-.7-4.42c-3.35-5.6-6.62-5.15-9.71-7.3-2.5.59-5.72,1.69-9.12,2.72a35.5,35.5,0,0,1-7.59,10.19l-12.3,6.1c.07.2.14.4.2.61s.14.54.19.81c1.73.78,3.54,2.22,1.94,3a3.86,3.86,0,0,1-2,.32c0,.14-.07.28-.11.41,1.3,1.13,2.28,2.62.72,3a4,4,0,0,1-2.18-.19c-.15.19-.3.37-.47.54.7,1.56,1,3.28-.61,3a4.08,4.08,0,0,1-2-1.14l-.21.09c.22,1.82,0,3.86-1.54,3a4.86,4.86,0,0,1-1.78-2.35l-.58,0a32.64,32.64,0,0,1-5.11,8.76L272,418.5l3.64,3.57-5.35,2.63-1.94-4.13c-3.55.14-10.64.4-10.82.1s-1.17-3.31-2.43-7c-1.39,1.18-3,2.4-4.69,3.64-.14,7.28-1.87,13.09-2.32,18,1,2,1,4.13,1.29,6.17Zm55.34-90.72a18.12,18.12,0,0,1-6.19-.1,25.14,25.14,0,0,0,.28,3.45A25.54,25.54,0,0,0,299.22,351.91Z" transform="translate(-214.07 -325.37)"/></svg>