<svg xmlns="http://www.w3.org/2000/svg" height="800" width="1200" viewBox="-301.455 -500 2612.61 3000"><path d="M0 1000V0h2009.7v2000H0zm602.92 150v-90H763.7v180l185.4-.166-5.024-2.309c-2.764-1.27-11.693-5.1-19.843-8.51-24.366-10.198-36.891-18.724-54.121-36.843-10.05-10.568-20.873-25.967-27.462-39.076-5.097-10.14-13.346-31.394-13.81-35.581l-.324-2.937 63.809-9.228c35.095-5.076 64.939-9.247 66.321-9.27 1.974-.031 3.158 1.05 5.527 5.048 9.524 16.075 29.045 28.375 48.934 30.835 39.402 4.873 74.132-24.163 75.907-63.462 1.417-31.358-16.291-56.906-46.942-67.723-8.19-2.89-25.607-3.543-35.585-1.334-16.562 3.667-34.105 16-41.818 29.397-1.932 3.355-3.9 6.114-4.373 6.13-1.876.065-131.66-18.014-132.04-18.393-.337-.335 56.264-250.94 59.022-261.33l.862-3.25H763.7v208H602.92v-208H450.18v488h152.74v-90zm691.35.086v-89.914l61.046-.449c50.137-.368 63.102-.748 72.556-2.126 45.532-6.637 75.163-20.01 98.924-44.645 23.057-23.906 35.045-51.976 38.844-90.951 1.44-14.766.72-39.174-1.562-53-10.033-60.784-46.103-98.57-106.52-111.58-22.373-4.82-20.773-4.759-135.41-5.148l-108.27-.368v100.1h-220.85l-3.242 13.75c-1.782 7.563-5.842 24.7-9.022 38.082-4.745 19.971-5.49 24.24-4.157 23.813.894-.285 6.373-2.307 12.176-4.493 13.294-5.007 37.711-11.7 47.748-13.09 9.786-1.354 38.914-1.367 53.241-.022 30.235 2.837 56.58 11.691 79.31 26.652 12.878 8.477 32.803 28.1 41.436 40.81 32.824 48.317 35.187 112.49 6.346 172.29-3.26 6.757-8.35 15.982-11.31 20.5-19.02 29.015-48.23 53.061-72.572 59.741-8.07 2.215-18.898 7.039-20.084 8.949-.431.693 28.626 1.022 90.365 1.022h91zm0-244.09v-54h30.424c48.304 0 63.803 3.05 76.569 15.065 11.117 10.463 16.624 23.326 16.581 38.724-.045 16.066-3.68 25.057-14.466 35.791-14.862 14.79-30.913 18.42-81.434 18.42h-27.673z"/><path stroke-width="2.433" stroke="#fff" fill="#fff" d="M451.024 996.1V752.79h150.85v209.25h163.02V752.79h121.75l-1.307 5.474c-2.54 10.635-47.071 207.77-52.49 232.36-3.023 13.718-4.905 25.533-4.182 26.256.723.723 30.515 5.34 66.205 10.26l64.891 8.947 9.895-11.577c27.937-32.684 75.421-33.24 102.84-1.205 35.938 41.985 4.73 107.54-51.078 107.29-19.803-.087-35.659-7.374-50.547-23.231l-11.784-12.551-64.806 9.184c-35.644 5.052-65.35 9.73-66.017 10.395-2.54 2.54 10.5 34.53 20.974 51.451 19.244 31.091 42.436 50.852 76.365 65.064 8.63 3.615 16.147 7.005 16.704 7.534.557.528-39.132.96-88.2.96h-89.213v-180.05h-163.02v180.05h-150.85z"/><path stroke-width="2.433" stroke="#fff" fill="#fff" d="M1118.984 1237.3c1.27-1.174 7.9-3.946 14.732-6.161 58.229-18.88 103.08-90.97 103.13-165.77.03-43.193-12.994-76.78-41.351-106.63-19.256-20.271-39.728-33.177-66.904-42.178-17.86-5.915-22.878-6.462-60.827-6.629-38.795-.17-42.686.239-62.676 6.595-11.722 3.727-22.957 7.407-24.967 8.178-2.36.906-3.274.23-2.58-1.91.59-1.822 4.529-18.367 8.752-36.767l7.68-33.455h220.99v-100.35l113.75 1.212c106.04 1.13 115.07 1.563 133.21 6.383 50.455 13.403 80.167 40.402 95.377 86.67 5.616 17.082 6.423 23.631 6.6 53.527.151 25.428-.884 38.073-4.082 49.878-13.928 51.405-51.002 87.442-103.98 101.07-19.48 5.01-65.583 8.178-121.05 8.317l-41.971.105v180.05h-88.078c-50.624 0-87.095-.907-85.766-2.134zm261.63-281.61c16.962-5.037 32.185-19.719 36.303-35.012 7.731-28.713-8.277-57.752-36.215-65.695-4.841-1.376-26.594-3.201-48.34-4.056l-39.538-1.553v113.44l37.32-1.61c22.553-.972 42.525-3.154 50.469-5.513z"/></svg>