<svg xmlns="http://www.w3.org/2000/svg" xmlns:xlink="http://www.w3.org/1999/xlink" height="800" width="1200" viewBox="-6 -10 52 60"><defs><linearGradient id="a"><stop/><stop offset="1" stop-opacity="0"/></linearGradient><linearGradient gradientTransform="rotate(5.607 -4877.2123 4185.7912)" gradientUnits="userSpaceOnUse" x2="33.4664" y2="30.733" x1="23.7188" y1="20.9854" id="e" xlink:href="#a"/><linearGradient id="b"><stop stop-color="#2f74c8"/><stop offset="1" stop-color="#4699d7"/></linearGradient><linearGradient gradientTransform="matrix(-1 0 0 1 432.5714 499.798)" x2="0" gradientUnits="userSpaceOnUse" y2="4" y1="44" xlink:href="#b" id="d"/><linearGradient id="c"><stop stop-color="#7cbaf8"/><stop offset="1" stop-color="#f4fcff"/></linearGradient><linearGradient gradientTransform="translate(31 10)" gradientUnits="userSpaceOnUse" x2="0" y2="492.798" y1="522.798" id="f" xlink:href="#c"/></defs><path d="M428.5714 503.798v30h-20l-11 10v-10h-9v-30z" fill="url(#d)" fill-rule="evenodd" transform="translate(-388.5714 -503.798)"/><path d="M413.5962 508.3125l-1.093.8976s3.0674 4.093 3.0658 9.093c-.0003 1.0433-.142 2.0276-.3374 2.9577l-3.662-4.4592-4.0701-.001-4.9294-6.0024h-2.9987l-.002 3.0004 16.4288 20.0055 12.565.0006.008-8.0067-13.2177-15.7368c-.4328-.5222-1.7575-1.7484-1.7575-1.7484zm-11.0286 14.486l-3.0007-.0002v2.9988l.897-.0003-.0002.4593c-.2491.5323-.8971.5419-.8971.5419l-.002.9987 7.0547 7.3729 1.944-1.3694 3.0405.002-9.0365-11.0038z" opacity=".2" fill="url(#e)" transform="translate(-388.5714 -503.798)"/><path d="M413.5973 508.3183l-1.0933.897s3.0655 4.0944 3.0618 9.0944c-.004 5-2.8378 9.015-2.8378 9.015l.897 1.0933s4.9343-3.107 4.9395-10.107c.005-7-4.9672-9.9927-4.9672-9.9927zM402.57 510.799l-2.9987-.001-.003 3.0005 3.0007.001.001-3.0007zm8.997 6.0075l-6.0012-.005-.001 3.0007 5.9992.005.003-3.0005zm-9.0046 5.993l-3.0007-.001-.001 2.9987.999.0004c-.0008 1-.9995 1.0005-.9995 1.0005l-.002.9987 1.0006.002c2 .001 2.0008-1.9988 2.0008-1.9988l.003-3.0005z" fill="url(#f)" transform="translate(-388.5714 -503.798)"/></svg>